<svg width="23" height="20" viewBox="0 0 23 20" fill="none" xmlns="http://www.w3.org/2000/svg">
<path fill-rule="evenodd" clip-rule="evenodd" d="M20 2H12C11.4477 2 11 2.44772 11 3V17C11 17.5523 11.4477 18 12 18H20C20.5523 18 21 17.5523 21 17V3C21 2.44772 20.5523 2 20 2ZM12 0C10.3431 0 9 1.34315 9 3V17C9 18.6569 10.3431 20 12 20H20C21.6569 20 23 18.6569 23 17V3C23 1.34315 21.6569 0 20 0H12ZM17 5C17 5.55228 16.5523 6 16 6C15.4477 6 15 5.55228 15 5C15 4.44772 15.4477 4 16 4C16.5523 4 17 4.44772 17 5ZM17.5 12C17.5 12.8284 16.8284 13.5 16 13.5C15.1716 13.5 14.5 12.8284 14.5 12C14.5 11.1716 15.1716 10.5 16 10.5C16.8284 10.5 17.5 11.1716 17.5 12ZM19 12C19 13.6569 17.6569 15 16 15C14.3431 15 13 13.6569 13 12C13 10.3431 14.3431 9 16 9C17.6569 9 19 10.3431 19 12Z" fill="#BDBDBD"/>
<path d="M6 2H1V15H6M3 18H6" stroke="#BDBDBD" stroke-width="1.5" stroke-linejoin="round"/>
</svg>
