<svg width="22" height="22" viewBox="0 0 22 22" fill="none" xmlns="http://www.w3.org/2000/svg">
<path fill-rule="evenodd" clip-rule="evenodd" d="M20 11C20 15.9706 15.9706 20 11 20C6.02944 20 2 15.9706 2 11C2 6.02944 6.02944 2 11 2C15.9706 2 20 6.02944 20 11ZM22 11C22 17.0751 17.0751 22 11 22C4.92487 22 0 17.0751 0 11C0 4.92487 4.92487 0 11 0C17.0751 0 22 4.92487 22 11ZM12 6C12 5.44772 11.5523 5 11 5C10.4477 5 10 5.44772 10 6V10H6C5.44772 10 5 10.4477 5 11C5 11.5523 5.44772 12 6 12H10V16C10 16.5523 10.4477 17 11 17C11.5523 17 12 16.5523 12 16V12H16C16.5523 12 17 11.5523 17 11C17 10.4477 16.5523 10 16 10H12V6Z" fill="#B3B3B3"/>
</svg>
