<svg width="23" height="22" viewBox="0 0 23 22" fill="none" xmlns="http://www.w3.org/2000/svg">
<mask id="path-1-inside-1_63_3061" fill="white">
<path d="M11.5 0C13.6756 2.59437e-08 15.8023 0.645139 17.6113 1.85383C19.4202 3.06253 20.8301 4.7805 21.6627 6.79048C22.4952 8.80047 22.7131 11.0122 22.2886 13.146C21.8642 15.2798 20.8166 17.2398 19.2782 18.7782C17.7398 20.3166 15.7798 21.3642 13.646 21.7886C11.5122 22.2131 9.30047 21.9952 7.29048 21.1627C5.28049 20.3301 3.56253 18.9202 2.35383 17.1113C1.14514 15.3023 0.5 13.1756 0.5 11H2.7C2.7 12.7405 3.21611 14.4419 4.18307 15.889C5.15002 17.3362 6.5244 18.4641 8.13239 19.1301C9.74038 19.7962 11.5098 19.9705 13.2168 19.6309C14.9238 19.2914 16.4918 18.4532 17.7225 17.2225C18.9532 15.9918 19.7914 14.4238 20.1309 12.7168C20.4705 11.0098 20.2962 9.24038 19.6301 7.63239C18.9641 6.0244 17.8362 4.65002 16.389 3.68307C14.9419 2.71611 13.2405 2.2 11.5 2.2V0Z"/>
</mask>
<path d="M11.5 0C13.6756 2.59437e-08 15.8023 0.645139 17.6113 1.85383C19.4202 3.06253 20.8301 4.7805 21.6627 6.79048C22.4952 8.80047 22.7131 11.0122 22.2886 13.146C21.8642 15.2798 20.8166 17.2398 19.2782 18.7782C17.7398 20.3166 15.7798 21.3642 13.646 21.7886C11.5122 22.2131 9.30047 21.9952 7.29048 21.1627C5.28049 20.3301 3.56253 18.9202 2.35383 17.1113C1.14514 15.3023 0.5 13.1756 0.5 11H2.7C2.7 12.7405 3.21611 14.4419 4.18307 15.889C5.15002 17.3362 6.5244 18.4641 8.13239 19.1301C9.74038 19.7962 11.5098 19.9705 13.2168 19.6309C14.9238 19.2914 16.4918 18.4532 17.7225 17.2225C18.9532 15.9918 19.7914 14.4238 20.1309 12.7168C20.4705 11.0098 20.2962 9.24038 19.6301 7.63239C18.9641 6.0244 17.8362 4.65002 16.389 3.68307C14.9419 2.71611 13.2405 2.2 11.5 2.2V0Z" fill="white" stroke="white" stroke-width="2" mask="url(#path-1-inside-1_63_3061)"/>
<path d="M12.5 5C12.5 4.44772 12.0523 4 11.5 4C10.9477 4 10.5 4.44772 10.5 5H12.5ZM15.5 12C16.0523 12 16.5 11.5523 16.5 11C16.5 10.4477 16.0523 10 15.5 10V12ZM10.5 5V11H12.5V5H10.5ZM10.5 11V12H12.5V11H10.5ZM11.5 12H15.5V10H11.5V12Z" fill="white"/>
<circle cx="2.5" cy="6" r="1" fill="white"/>
<circle cx="6.5" cy="2" r="1" fill="white"/>
</svg>
