<svg width="22" height="22" viewBox="0 0 22 22" fill="none" xmlns="http://www.w3.org/2000/svg">
<g clip-path="url(#clip0_22_3211)">
<path fill-rule="evenodd" clip-rule="evenodd" d="M18.1192 1.68088C17.9815 1.54318 17.7947 1.46582 17.6 1.46582C17.4053 1.46582 17.2185 1.54318 17.0808 1.68088C16.9431 1.81858 16.8657 2.00534 16.8657 2.20008C16.8657 2.39482 16.9431 2.58158 17.0808 2.71928L18.7631 4.40008H17.6C15.6992 4.40008 14.2428 5.25661 13.0123 6.43875C12.0281 7.38328 11.1364 8.59035 10.2593 9.77981C10.0657 10.0423 9.8736 10.3034 9.68 10.5601C7.4932 13.4758 5.11867 16.1334 0.733333 16.1334C0.538841 16.1334 0.352315 16.2107 0.214788 16.3482C0.0772617 16.4857 0 16.6723 0 16.8667C0 17.0612 0.0772617 17.2478 0.214788 17.3853C0.352315 17.5228 0.538841 17.6001 0.733333 17.6001C5.88133 17.6001 8.64013 14.391 10.8533 11.4401C11.0645 11.1585 11.2684 10.8827 11.4693 10.6114C12.3449 9.42635 13.1413 8.34688 14.0287 7.49621C15.0905 6.47688 16.2008 5.86675 17.6 5.86675H18.7631L17.0808 7.54755C16.9431 7.68525 16.8657 7.87201 16.8657 8.06675C16.8657 8.26148 16.9431 8.44825 17.0808 8.58595C17.2185 8.72365 17.4053 8.80101 17.6 8.80101C17.7947 8.80101 17.9815 8.72365 18.1192 8.58595L21.0525 5.65261C21.1208 5.58449 21.175 5.50357 21.212 5.41448C21.2489 5.32538 21.268 5.22987 21.268 5.13341C21.268 5.03695 21.2489 4.94144 21.212 4.85235C21.175 4.76326 21.1208 4.68233 21.0525 4.61421L18.1192 1.68088ZM0.733333 4.40008C4.91773 4.40008 7.524 6.52088 9.54067 8.89835L9.35147 9.15648C9.11648 9.47547 8.87985 9.79325 8.6416 10.1098C6.70707 7.76315 4.43813 5.86675 0.733333 5.86675C0.538841 5.86675 0.352315 5.78948 0.214788 5.65196C0.0772617 5.51443 0 5.32791 0 5.13341C0 4.93892 0.0772617 4.75239 0.214788 4.61487C0.352315 4.47734 0.538841 4.40008 0.733333 4.40008ZM13.0123 15.5614C12.2789 14.8589 11.5999 14.0111 10.9384 13.1341C11.2156 12.785 11.4796 12.4389 11.7333 12.1001L11.8653 11.9241C12.5899 12.8979 13.2777 13.7838 14.0287 14.5054C15.0905 15.5233 16.2008 16.1334 17.6 16.1334H18.7631L17.0808 14.4526C16.9431 14.3149 16.8657 14.1281 16.8657 13.9334C16.8657 13.7387 16.9431 13.5519 17.0808 13.4142C17.2185 13.2765 17.4053 13.1992 17.6 13.1992C17.7947 13.1992 17.9815 13.2765 18.1192 13.4142L21.0525 16.3475C21.1208 16.4157 21.175 16.4966 21.212 16.5857C21.2489 16.6748 21.268 16.7703 21.268 16.8667C21.268 16.9632 21.2489 17.0587 21.212 17.1478C21.175 17.2369 21.1208 17.3178 21.0525 17.3859L18.1192 20.3193C17.9815 20.457 17.7947 20.5343 17.6 20.5343C17.4053 20.5343 17.2185 20.457 17.0808 20.3193C16.9431 20.1816 16.8657 19.9948 16.8657 19.8001C16.8657 19.6053 16.9431 19.4186 17.0808 19.2809L18.7631 17.6001H17.6C15.6992 17.6001 14.2428 16.7435 13.0123 15.5614Z" fill="#A7A7A7"/>
</g>
<defs>
<clipPath id="clip0_22_3211">
<rect width="22" height="22" fill="white"/>
</clipPath>
</defs>
</svg>
