<svg width="21" height="21" viewBox="0 0 21 21" fill="none" xmlns="http://www.w3.org/2000/svg">
<path fill-rule="evenodd" clip-rule="evenodd" d="M16.1629 9C16.1629 12.866 13.0289 16 9.16289 16C5.29689 16 2.16289 12.866 2.16289 9C2.16289 5.13401 5.29689 2 9.16289 2C13.0289 2 16.1629 5.13401 16.1629 9ZM14.7867 16.027C13.2461 17.2616 11.2907 18 9.16289 18C4.19232 18 0.162888 13.9706 0.162888 9C0.162888 4.02944 4.19232 0 9.16289 0C14.1335 0 18.1629 4.02944 18.1629 9C18.1629 11.1278 17.4245 13.0832 16.1899 14.6238C16.2226 14.6492 16.2541 14.677 16.2842 14.7071L20.5442 18.9671C20.9347 19.3576 20.9347 19.9908 20.5442 20.3813C20.1537 20.7718 19.5205 20.7718 19.13 20.3813L14.87 16.1213C14.8399 16.0912 14.8122 16.0597 14.7867 16.027Z" fill="#B3B3B3"/>
</svg>
