<svg width="22" height="22" viewBox="0 0 22 22" fill="none" xmlns="http://www.w3.org/2000/svg">
<path fill-rule="evenodd" clip-rule="evenodd" d="M11 22C4.92525 22 0 17.0748 0 11C0 4.92525 4.92525 0 11 0C17.0748 0 22 4.92525 22 11C22 17.0748 17.0748 22 11 22ZM1.83333 11C1.83333 16.0627 5.93725 20.1667 11 20.1667C16.0627 20.1667 20.1667 16.0627 20.1667 11C20.1667 5.93725 16.0627 1.83333 11 1.83333C5.93725 1.83333 1.83333 5.93725 1.83333 11ZM14.9352 10.3519L11.9167 13.3705V5.5H10.0833V13.3705L7.06475 10.3519L5.76858 11.6481L10.3519 16.2314L11 16.8795L11.6481 16.2314L16.2314 11.6481L14.9352 10.3519Z" fill="#A7A7A7"/>
</svg>
