<svg width="22" height="22" viewBox="0 0 22 22" fill="none" xmlns="http://www.w3.org/2000/svg">
<path d="M21.4677 4.50846C21.1264 3.62621 20.6342 2.82672 20.0187 2.15475C19.4028 1.48077 18.6766 0.945175 17.8796 0.577078C17.0532 0.193869 16.1668 -0.0022792 15.2719 1.99806e-05C14.0164 1.99806e-05 12.7915 0.383778 11.727 1.10865C11.4724 1.28206 11.2305 1.47251 11.0013 1.68003C10.7721 1.47251 10.5301 1.28206 10.2755 1.10865C9.21101 0.383778 7.9861 1.99806e-05 6.73063 1.99806e-05C5.82659 1.99806e-05 4.95057 0.19332 4.12293 0.577078C3.3233 0.946623 2.60261 1.4782 1.98379 2.15475C1.36751 2.82596 0.875206 3.62564 0.534783 4.50846C0.180808 5.42664 0 6.40167 0 7.40512C0 8.35173 0.173168 9.33813 0.516957 10.3416C0.804722 11.1802 1.21727 12.05 1.74441 12.9284C2.57969 14.3184 3.7282 15.7682 5.15429 17.2379C7.51753 19.674 9.85784 21.3569 9.95716 21.4251L10.5607 21.8572C10.8281 22.0476 11.1719 22.0476 11.4393 21.8572L12.0428 21.4251C12.1421 21.354 14.4799 19.674 16.8457 17.2379C18.2718 15.7682 19.4203 14.3184 20.2556 12.9284C20.7827 12.05 21.1978 11.1802 21.483 10.3416C21.8268 9.33813 22 8.35173 22 7.40512C22.0025 6.40167 21.8217 5.42664 21.4677 4.50846ZM11.0013 19.6086C11.0013 19.6086 1.93541 13.1245 1.93541 7.40512C1.93541 4.50846 4.08218 2.16043 6.73063 2.16043C8.59219 2.16043 10.2067 3.32024 11.0013 5.01445C11.7958 3.32024 13.4103 2.16043 15.2719 2.16043C17.9203 2.16043 20.0671 4.50846 20.0671 7.40512C20.0671 13.1245 11.0013 19.6086 11.0013 19.6086Z" fill="#A7A7A7"/>
</svg>
