<svg width="25" height="24" viewBox="0 0 25 24" fill="none" xmlns="http://www.w3.org/2000/svg">
<path fill-rule="evenodd" clip-rule="evenodd" d="M13.4969 2.46558L14.0601 3.35659C15.0812 4.97165 16.9333 5.86362 18.8326 5.6549L19.8804 5.53975C20.6106 5.45951 21.1752 6.16749 20.9345 6.86145L20.5891 7.85737C19.9629 9.6626 20.4204 11.6668 21.7678 13.0216L22.5111 13.769C23.029 14.2899 22.8275 15.1727 22.1349 15.4172L21.1409 15.7681C19.3391 16.4041 18.0574 18.0114 17.8382 19.9095L17.7173 20.9566C17.6331 21.6863 16.8172 22.0792 16.1942 21.6901L15.3001 21.1318C13.6795 20.1196 11.6237 20.1196 10.0031 21.1318L9.109 21.6901C8.48599 22.0792 7.67013 21.6863 7.58589 20.9566L7.46499 19.9095C7.24584 18.0114 5.96409 16.4041 4.16233 15.7681L3.16832 15.4172C2.47568 15.1727 2.27418 14.2899 2.79214 13.769L3.53547 13.0216C4.88284 11.6668 5.3403 9.6626 4.71418 7.85737L4.36875 6.86145C4.12806 6.16749 4.69265 5.45951 5.42278 5.53975L6.47059 5.6549C8.36989 5.86362 10.2221 4.97165 11.2431 3.35659L11.8064 2.46558C12.1988 1.84472 13.1044 1.84472 13.4969 2.46558ZM10.1158 1.39687C11.2933 -0.46571 14.0099 -0.465711 15.1874 1.39687L15.7507 2.28788C16.3633 3.25692 17.4746 3.7921 18.6142 3.66686L19.662 3.55172C21.8524 3.31101 23.5461 5.43493 22.824 7.51682L22.4786 8.51275C22.103 9.59588 22.3774 10.7984 23.1858 11.6113L23.9292 12.3587C25.483 13.9211 24.8785 16.5696 22.8006 17.3031L21.8066 17.654C20.7256 18.0356 19.9565 19 19.825 20.1389L19.7041 21.186C19.4514 23.375 17.0038 24.5537 15.1348 23.3865L14.2407 22.8281C13.2683 22.2208 12.0349 22.2208 11.0625 22.8281L10.1684 23.3865C8.29939 24.5537 5.85182 23.375 5.59909 21.186L5.47819 20.1389C5.3467 19 4.57765 18.0356 3.49659 17.654L2.50258 17.3031C0.424681 16.5696 -0.179819 13.9211 1.37405 12.3587L2.11738 11.6113C2.9258 10.7984 3.20028 9.59588 2.8246 8.51274L2.47918 7.51682C1.7571 5.43493 3.45088 3.31101 5.64125 3.55172L6.68906 3.66686C7.82864 3.7921 8.93995 3.25692 9.55256 2.28788L10.1158 1.39687ZM15.6516 12.3857C15.6516 14.0425 14.3085 15.3857 12.6516 15.3857C10.9948 15.3857 9.65161 14.0425 9.65161 12.3857C9.65161 10.7288 10.9948 9.38568 12.6516 9.38568C14.3085 9.38568 15.6516 10.7288 15.6516 12.3857ZM17.6516 12.3857C17.6516 15.1471 15.413 17.3857 12.6516 17.3857C9.89019 17.3857 7.65161 15.1471 7.65161 12.3857C7.65161 9.62426 9.89019 7.38568 12.6516 7.38568C15.413 7.38568 17.6516 9.62426 17.6516 12.3857Z" fill="white"/>
</svg>
